<?xml version="1.0" encoding="UTF-8" standalone="no"?>
<!-- Created with Inkscape (http://www.inkscape.org/) -->

<svg
   xmlns:dc="http://purl.org/dc/elements/1.1/"
   xmlns:cc="http://creativecommons.org/ns#"
   xmlns:rdf="http://www.w3.org/1999/02/22-rdf-syntax-ns#"
   xmlns:svg="http://www.w3.org/2000/svg"
   xmlns="http://www.w3.org/2000/svg"
   xmlns:sodipodi="http://sodipodi.sourceforge.net/DTD/sodipodi-0.dtd"
   xmlns:inkscape="http://www.inkscape.org/namespaces/inkscape"
   id="svg4156"
   version="1.1"
   inkscape:version="0.91 r13725"
   width="381.5625"
   height="712.5"
   viewBox="0 0 381.5625 712.5"
   sodipodi:docname="Auctioneer.svg">
  <metadata
     id="metadata4162">
    <rdf:RDF>
      <cc:Work
         rdf:about="">
        <dc:format>image/svg+xml</dc:format>
        <dc:type
           rdf:resource="http://purl.org/dc/dcmitype/StillImage" />
        <dc:title></dc:title>
      </cc:Work>
    </rdf:RDF>
  </metadata>
  <defs
     id="defs4160" />
  <sodipodi:namedview
     pagecolor="#ffffff"
     bordercolor="#666666"
     borderopacity="1"
     objecttolerance="10"
     gridtolerance="10"
     guidetolerance="10"
     inkscape:pageopacity="0"
     inkscape:pageshadow="2"
     inkscape:window-width="1600"
     inkscape:window-height="837"
     id="namedview4158"
     showgrid="false"
     inkscape:zoom="0.94035088"
     inkscape:cx="190.78125"
     inkscape:cy="356.25"
     inkscape:window-x="-8"
     inkscape:window-y="-8"
     inkscape:window-maximized="1"
     inkscape:current-layer="svg4156" />
  <path
     style="fill:#000000"
     d="m 165.2166,707.76616 c -7.47187,-1.3324 -11.4666,-3.26588 -11.4666,-5.5499 l 0,-1.94191 -46.17187,0.58776 c -25.394536,0.32327 -59.039068,0.8799 -74.76563,1.23696 -15.726563,0.35705 -28.7203373,0.57221 -28.8750552,0.47813 -0.1547179,-0.0941 0.3748155,-19.94291 1.1767408,-44.1085 0.8019253,-24.1656 1.6539885,-52.37495 1.8934737,-62.68745 0.2394852,-10.3125 0.6732949,-29.08594 0.9640215,-41.71875 0.2907267,-12.63281 0.7304112,-24.26462 0.9770769,-25.84846 0.2466656,-1.58384 0.690652,-23.09946 0.9866357,-47.8125 0.2959846,-24.71303 0.6713156,-48.72967 0.8340686,-53.37029 0.430795,-12.28341 0.831964,-104.55104 0.64301,-147.89063 C 11.250947,242.09208 11.238657,241.875 9.3028846,241.875 c -1.0709135,0 -3.1802885,-1.23317 -4.6875,-2.74039 C 2.3135228,236.83275 1.875,235.64022 1.875,231.68232 c 0,-4.22505 0.314815,-4.94659 3.046875,-6.98337 3.0136447,-2.2467 3.3433921,-2.27761 30.234375,-2.83459 14.953125,-0.30972 28.875,-0.22768 30.9375,0.1823 2.064029,0.41028 6.06821,2.50441 8.90625,4.65785 2.835937,2.15183 5.534459,3.91424 5.996714,3.91646 0.462255,0.002 2.993505,1.41315 5.625,3.13541 2.631495,1.72226 6.261098,3.92159 8.065786,4.8874 1.804687,0.96582 5.179687,2.88652 7.5,4.26825 8.00581,4.76739 8.04032,4.74977 8.00216,-4.08451 -0.0302,-6.98652 0.23834,-8.1739 2.77909,-12.28889 1.54688,-2.50531 4.20481,-6.83371 5.90652,-9.61865 1.70172,-2.78495 4.1275,-5.7407 5.39063,-6.56833 3.29369,-2.15811 2.84043,-3.84431 -1.21902,-4.53506 -1.9336,-0.32902 -4.44727,-1.31532 -5.58595,-2.19178 l -2.07031,-1.59356 2.30432,-4.51545 c 2.85381,-5.5922 2.05314,-7.63829 -3.56961,-9.12215 -2.18299,-0.57609 -6.02144,-1.64565 -8.52986,-2.37679 -2.50843,-0.73115 -5.34818,-1.32936 -6.310554,-1.32936 -2.639654,0 -14.619492,-11.7481 -15.882605,-15.57537 -0.773038,-2.34234 -0.812609,-5.28653 -0.140875,-10.48158 0.513766,-3.97336 0.713129,-8.61275 0.443027,-10.30973 -0.429611,-2.69916 0.0047,-3.5571 3.46945,-6.853 3.427361,-3.26037 4.14387,-4.65334 5.322335,-10.34717 1.660149,-8.02111 1.144475,-8.89012 -5.789504,-9.75647 -6.781624,-0.8473 -8.338562,-2.67001 -8.064616,-9.44128 0.239659,-5.92378 3.056822,-11.31572 6.364696,-12.181769 1.120941,-0.293484 5.761566,0.09103 10.312504,0.854389 4.550935,0.76341 9.118172,1.35868 10.149422,1.32285 8.17346,-0.284 10.99335,0.337 13.66586,3.00952 2.10497,2.10496 2.72857,3.57228 2.68941,6.32812 -0.0709,4.98794 -2.76557,11.48592 -5.65576,13.63833 -2.26986,1.69043 -2.75958,1.71909 -7.63195,0.44675 -2.86356,-0.74778 -5.59739,-1.09527 -6.07517,-0.77222 -0.47779,0.32306 -1.43233,3.63025 -2.12121,7.34932 -1.564152,8.44444 -1.187727,8.98774 8.09597,11.68524 8.08306,2.34862 12.63502,6.49134 14.42118,13.12461 1.40523,5.21863 5.19661,12.67528 6.69956,13.17626 0.64703,0.21567 2.24771,-0.22272 3.55709,-0.97419 2.15025,-1.23408 2.80548,-1.1728 6.76954,0.63303 2.41387,1.09965 5.26778,1.99936 6.34203,1.99936 1.07424,0 4.36692,1.2049 7.31706,2.67756 8.18254,4.08458 10.04557,4.31653 12.5853,1.56688 1.18448,-1.28238 4.25427,-5.82057 6.82178,-10.0849 2.56751,-4.26431 6.68079,-10.20097 9.14062,-13.19259 4.61366,-5.61103 5.12126,-6.7053 3.55846,-7.67116 -0.51524,-0.31844 -0.66684,-2.36788 -0.34749,-4.69777 0.48751,-3.55676 0.22284,-4.54128 -1.89852,-7.06239 -1.35576,-1.61122 -2.46501,-3.28628 -2.46501,-3.72235 0,-1.8311 -7.24577,-2.93428 -19.09391,-2.9071 -11.53397,0.0264 -12.8656,-0.1494 -15.73749,-2.07829 -2.07412,-1.39309 -3.24048,-2.99762 -3.44167,-4.73463 -0.43803,-3.78173 2.26027,-9.89486 6.1343,-13.8976 3.13168,-3.23572 3.27489,-3.64033 2.20375,-6.226288 -1.05972,-2.558409 -0.89103,-3.099159 2.25107,-7.215528 3.92081,-5.136539 3.92575,-6.721036 0.0277,-8.874989 -2.88304,-1.593086 -5.11788,-4.908619 -5.14243,-7.629141 -0.007,-0.842343 1.77915,-3.074949 3.97055,-4.961344 6.76043,-5.819473 7.26563,-6.424018 7.26563,-8.694354 0,-1.480524 -0.76,-2.491873 -2.31757,-3.084061 -3.46139,-1.316016 -3.95411,-4.893733 -1.18834,-8.628638 2.79493,-3.774264 5.72412,-12.406153 5.49197,-16.183976 -0.0936,-1.524276 -0.75712,-3.422713 -1.47435,-4.21875 -1.48393,-1.646988 -4.22757,-9.073501 -4.24807,-11.498735 -0.007,-0.887641 1.00473,-3.916624 2.24942,-6.731073 3.66305,-8.2828146 11.17666,-10.4128545 18.25937,-5.1763719 2.81964,2.0846487 3.46956,2.1466076 20.49165,1.9535541 15.29052,-0.1734149 18.99519,0.088815 28.45022,2.0138118 5.97882,1.217252 11.76572,2.84018 12.8598,3.606505 3.26803,2.289017 7.41561,8.057874 12.11096,16.845103 4.26807,7.987596 4.6405,8.389052 10.28317,11.084399 4.38673,2.095421 6.00745,3.405216 6.46389,5.223819 1.20248,4.79106 -0.28485,8.887592 -5.05998,13.936587 l -4.58882,4.852003 0.76677,4.659028 c 2.21378,13.451258 2.08527,13.079533 4.62387,13.375284 1.316,0.153315 4.05819,1.879713 6.09375,3.83644 7.18692,6.908605 9.79474,10.633274 9.79474,13.989625 0,1.00202 0.65455,2.36508 1.45456,3.02903 0.80001,0.66394 4.59265,5.88357 8.42809,11.59916 3.83543,5.7156 8.0012,11.65761 9.25727,13.20449 1.25606,1.54687 3.54692,6.1875 5.09081,10.3125 1.54387,4.125 4.4841,11.30677 6.53383,15.95947 2.83974,6.44596 4.19642,11.36863 5.69987,20.68182 1.08518,6.72228 1.97307,14.04626 1.97307,16.2755 0,2.22925 0.39296,5.57868 0.87324,7.44319 0.48029,1.86451 2.24964,9.29627 3.93188,16.51502 1.68224,7.21875 3.74687,14.17969 4.58807,15.46875 0.84119,1.28906 2.09432,3.82031 2.78472,5.625 0.69039,1.80469 2.66461,5.61332 4.38713,8.46362 3.45774,5.72157 6.31566,12.73399 8.39512,20.59888 0.74981,2.83594 2.15602,6.84375 3.12489,8.90625 0.96888,2.0625 1.98612,5.36656 2.26053,7.34235 0.27442,1.97578 1.31998,5.35078 2.32347,7.5 6.18846,13.25398 12.26672,45.12018 13.65748,71.60144 0.45146,8.59597 1.45521,17.12275 4.22609,35.89996 0.49457,3.35156 1.36483,11.57812 1.9339,18.28125 0.56907,6.70312 1.41623,14.92969 1.88258,18.28125 0.46635,3.35156 1.11606,8.625 1.4438,11.71875 0.53374,5.03827 5.18459,22.66545 6.57283,24.91168 1.17112,1.8949 -0.82383,4.72118 -5.02606,7.1205 -2.41501,1.37889 -7.39411,4.43886 -11.06467,6.79994 -3.67056,2.36109 -8.73306,5.45926 -11.25,6.88482 -2.51694,1.42558 -8.20243,4.85692 -12.63445,7.62521 -4.432,2.76828 -9.07263,5.34359 -10.3125,5.72288 -1.23986,0.37929 -3.9418,1.4235 -6.0043,2.32045 -2.0625,0.89694 -6.91406,2.36894 -10.78125,3.2711 -10.11381,2.35941 -9.88996,2.15864 -9.55811,8.57262 0.15709,3.03644 0.66393,7.84111 1.12627,10.67705 3.12055,19.1406 3.18566,26.2379 0.43868,47.8125 -0.755,5.92969 -1.5448,21.11719 -1.75512,33.75 -0.21031,12.63281 -0.82812,24.65625 -1.37291,26.71875 -0.54478,2.0625 -1.08404,9.99628 -1.19835,17.63063 -0.17794,11.88328 -0.45319,14.1635 -1.9129,15.84657 -1.31203,1.51278 -1.70506,3.53818 -1.70506,8.78678 0,7.77646 -0.94293,9.33158 -6.2633,10.32969 -1.86478,0.34982 -7.11171,0.37192 -11.65983,0.0491 -5.01364,-0.35587 -9.29118,-0.19846 -10.8648,0.39983 -1.42753,0.54274 -4.92094,1.27591 -7.76315,1.62926 -4.22444,0.5252 -5.21755,0.99062 -5.4409,2.5499 -0.15029,1.0491 -1.20497,3.03575 -2.34375,4.4148 -1.87648,2.27236 -2.72946,2.5243 -9.10177,2.6883 -3.86719,0.0995 -9.35156,-0.12621 -12.1875,-0.50164 -3.93748,-0.52127 -6.81821,-0.22713 -12.1875,1.24439 -10.99158,3.01237 -44.28924,5.38504 -53.2209,3.79232 z M 87.649426,698.3911 c 36.605624,-0.53416 66.905454,-1.32098 67.332954,-1.74848 0.42751,-0.42751 0.96095,-16.96809 1.18541,-36.75683 1.35528,-119.47712 2.30688,-336.36117 1.53932,-350.83317 l -0.48946,-9.22863 -7.09343,-3.23258 c -3.90139,-1.77792 -7.31833,-3.58601 -7.5932,-4.01799 -0.48933,-0.769 -25.01974,-16.04654 -39.87477,-24.834 -4.125,-2.44014 -9.1875,-5.62557 -11.25,-7.07873 -4.356522,-3.06946 -12.137561,-7.35514 -25.3125,-13.94177 l -9.375,-4.6869 -21.09375,0.15587 -21.09375,0.15586 -0.135367,56.71875 c -0.07446,31.19531 -0.344621,74.22656 -0.600376,95.625 -1.162475,97.26161 -1.814393,136.75339 -2.530321,153.28125 -0.424366,9.79687 -1.026447,30.25781 -1.3379573,45.46875 -0.3115096,15.21094 -0.7835383,33.14062 -1.0489525,39.84375 -0.2654141,6.70312 -0.6684539,19.78125 -0.8956439,29.0625 -0.2271901,9.28125 -0.6997052,21.41016 -1.0500337,26.95312 l -0.6369609,10.07813 7.3990553,-0.007 c 4.069482,-0.004 37.349111,-0.44338 73.954733,-0.97755 z m 82.506824,-8.4657 c 11.7388,-1.76435 21.96413,-7.62553 23.97617,-13.74317 0.63781,-1.93929 3.69789,-6.90098 6.80018,-11.02598 3.10229,-4.125 6.72799,-9.59867 8.05709,-12.16371 2.23883,-4.3207 2.4004,-5.45837 2.19684,-15.46875 -0.23966,-11.78502 1.90684,-48.53011 3.68067,-63.00813 1.01205,-8.2604 0.91938,-10.19659 -1.02893,-21.49562 -1.17764,-6.82963 -2.86287,-14.76792 -3.74495,-17.64065 l -1.60378,-5.22314 -13.38299,0.31115 c -17.91672,0.41656 -16.98661,1.35391 -16.96489,-17.09708 0.009,-7.78336 0.43297,-17.94844 0.94181,-22.58907 1.27607,-11.63772 1.21364,-54.88281 -0.0841,-58.27232 -1.1596,-3.02864 -1.61868,-37.36655 -0.67487,-50.47768 1.25234,-17.39711 1.09528,-30.9016 -0.47976,-41.25 -0.86327,-5.67188 -1.94463,-16.13112 -2.40304,-23.24276 -0.45841,-7.11165 -1.0943,-13.1911 -1.41309,-13.50988 -0.31878,-0.31879 -1.35369,0.12092 -2.2998,0.97713 -2.16819,1.96219 -3.4202,1.95582 -6.78968,-0.0346 -1.48167,-0.87524 -3.0024,-1.28288 -3.37941,-0.90587 -0.37701,0.37702 -0.76189,39.16734 -0.85528,86.20072 -0.26319,132.55575 -1.29188,292.20991 -1.91546,297.28538 l -0.56305,4.58264 2.68392,-0.61114 c 1.47615,-0.33613 5.63703,-1.05499 9.24641,-1.59749 z m 88.94318,-16.61238 c 0.96564,-3.9706 1.70489,-8.90677 1.64279,-10.96927 -0.0621,-2.0625 0.96495,-9.40116 2.28232,-16.30812 1.31737,-6.90697 2.30903,-15.13353 2.20367,-18.28125 -0.10536,-3.14772 0.49406,-14.58251 1.33205,-25.41063 1.74692,-22.57331 2.66101,-63.99981 1.60624,-72.7949 -0.42172,-3.51648 -0.35528,-6.18777 0.16225,-6.52327 0.48204,-0.31249 5.80136,-1.71086 11.82072,-3.1075 6.01935,-1.39663 11.78803,-2.90536 12.81928,-3.35275 1.83066,-0.79419 1.82791,-0.81493 -0.11619,-0.87688 -2.70164,-0.0861 -22.63393,4.14779 -26.13381,5.55117 -8.24464,3.30591 -13.19695,4.13063 -31.40625,5.23014 -5.41406,0.3269 -10.24453,0.97369 -10.73438,1.43731 -1.15,1.08841 1.62637,1.06831 17.27041,-0.12506 6.94639,-0.52988 15.11415,-1.60719 18.15059,-2.39401 3.03644,-0.78682 5.79054,-1.16049 6.12021,-0.83039 0.87285,0.87398 0.17164,62.2198 -0.82483,72.16114 -0.46516,4.64062 -1.09765,14.76562 -1.40555,22.5 -0.54234,13.62373 -3.62025,35.45651 -5.30488,37.6296 -0.45498,0.5869 -0.57441,2.69628 -0.26541,4.6875 0.37514,2.41739 -0.0789,5.64527 -1.36633,9.71415 -1.06048,3.35156 -1.93358,7.33828 -1.94024,8.85937 -0.0209,4.77347 2.15248,1.15966 4.08734,-6.79635 z M 169.72622,296.91195 c 0.61087,-2.72968 0.95753,-5.74404 0.77035,-6.69859 -0.20438,-1.04227 -5.37257,-4.8651 -12.93835,-9.57027 -6.92892,-4.30911 -13.46799,-8.63312 -14.53125,-9.60892 -2.01651,-1.85063 -8.87185,-5.72167 -10.13268,-5.72167 -2.04845,0 -10.27189,-4.68991 -15.23804,-8.6904 -5.2415,-4.2223 -10.51487,-7.51721 -19.7055,-12.3124 -2.0724,-1.08128 -5.658333,-3.26103 -7.968747,-4.84391 -2.310415,-1.58288 -5.677316,-3.44533 -7.482003,-4.13878 -1.804688,-0.69345 -3.914063,-1.76425 -4.6875,-2.37956 -0.773438,-0.61531 -4.992188,-2.85128 -9.375,-4.96883 l -7.96875,-3.85008 -26.442288,0.75476 c -19.184121,0.54758 -26.8398434,1.0847 -27.890625,1.95677 -1.781104,1.47818 -1.9279198,7.84483 -0.2137098,9.2675 0.7895135,0.65523 10.6757788,1.2288 27.4218758,1.59093 18.245943,0.39457 26.755843,0.91723 28.062247,1.72356 1.03125,0.6365 3.807564,1.87831 6.169588,2.7596 2.362024,0.88127 5.104211,2.35409 6.09375,3.27291 0.989539,0.91883 3.259399,2.49322 5.044134,3.49864 1.784733,1.00542 5.045826,3.16803 7.246871,4.80578 2.201044,1.63777 4.957939,3.28119 6.12643,3.65205 1.168492,0.37087 2.548024,1.21756 3.065627,1.88155 0.517603,0.66398 3.050475,2.34144 5.6286,3.72769 7.21284,3.87834 7.80659,4.23633 17.8125,10.74017 5.15625,3.35157 10.85156,6.88939 12.65625,7.86184 1.80469,0.97245 4.33594,2.67717 5.625,3.78826 1.28906,1.1111 4.24219,2.98284 6.5625,4.15943 2.32031,1.1766 5.90625,3.15401 7.96875,4.39423 2.0625,1.24022 4.38281,2.2759 5.15625,2.30151 0.77344,0.0256 3.09375,1.2636 5.15625,2.7511 5.57837,4.02315 6.70219,3.72774 8.00747,-2.10487 z m 4.33666,-12.45081 c 0.31159,-0.81199 -0.17769,-3.93433 -1.08728,-6.93851 -1.15872,-3.827 -1.46059,-6.75064 -1.00837,-9.76621 0.58697,-3.91419 0.40841,-4.5237 -1.97126,-6.7291 -3.26131,-3.02249 -5.97441,-2.63252 -12.39052,1.78099 -2.53792,1.74577 -6.5713,3.6669 -8.96308,4.26915 -2.43134,0.61222 -4.09483,1.50575 -3.77293,2.0266 0.31667,0.51238 2.76074,2.03501 5.43128,3.38363 2.67055,1.34863 6.74663,3.76638 9.05797,5.3728 5.32219,3.69901 12.44917,7.96814 13.4051,8.02978 0.40291,0.026 0.98749,-0.61713 1.29909,-1.42913 z m 5.26411,-30.74334 c 3.99894,-1.69966 12.83102,-8.63271 20.36051,-15.98271 3.35156,-3.27166 9.09384,-8.21374 12.76061,-10.98241 22.59116,-17.05785 27.77914,-21.52068 25.78871,-22.18416 -1.14175,-0.38058 -13.71298,8.55078 -14.8827,10.57356 -0.38383,0.66374 -5.76037,5.09602 -11.94787,9.84951 -6.1875,4.75349 -12.00188,9.62348 -12.92084,10.8222 -0.91897,1.19873 -5.77184,4.71405 -10.78417,7.81184 -13.37789,8.26798 -18.44234,14.37136 -8.37425,10.09217 z m -49.39464,-53.79593 c 0.85097,-2.96484 3.86503,-9.96102 6.69788,-15.54705 2.86332,-5.64612 4.78991,-10.50409 4.33834,-10.93928 -0.44678,-0.43056 -2.28888,-0.92266 -4.09357,-1.09356 -3.12363,-0.29581 -3.40346,-0.0696 -5.8254,4.71052 -1.39928,2.76168 -3.46838,6.55855 -4.59798,8.4375 -2.96913,4.93872 -8.57459,16.16023 -8.18757,16.3906 0.54996,0.32736 8.71864,3.19821 9.44414,3.3191 0.37231,0.0621 1.37318,-2.31298 2.22416,-5.27783 z m 27.49344,-8.91941 c 4.63858,-8.64161 2.85822,-8.25653 -2.90002,0.62726 -3.84853,5.93749 -4.25321,7.12774 -2.4164,7.10712 0.64454,-0.007 3.03692,-3.48771 5.31642,-7.73438 z m 38.25633,-54.36803 c 1.10109,-2.33367 4.94288,-15.90548 4.94288,-17.46159 0,-2.06245 -2.5686,0.10873 -3.52761,2.98181 -0.55105,1.65088 -2.30308,6.10391 -3.8934,9.89561 -3.6056,8.59663 -3.7365,10.10914 -0.70284,8.12141 1.20375,-0.78874 2.63519,-2.38049 3.18098,-3.53724 z m 7.96282,-6.37345 c 1.19386,-0.54396 3.18159,-2.46437 4.41717,-4.2676 2.81806,-4.11268 18.38745,-17.49695 24.95147,-21.4496 2.71478,-1.63475 6.97934,-4.645814 9.47681,-6.691252 2.49748,-2.045437 5.79787,-4.511272 7.33421,-5.479635 1.53634,-0.968362 2.30932,-1.922001 1.71774,-2.119197 -1.06479,-0.354931 -6.75148,2.416376 -17.63609,8.594635 -3.09375,1.756059 -11.60011,6.273869 -18.90302,10.039599 -12.79325,6.59681 -13.27311,6.9503 -13.14356,9.68255 0.074,1.55967 -0.18813,5.05061 -0.58239,7.75765 -0.78243,5.37207 -0.78429,5.36897 2.36766,3.93285 z m 48.07671,-18.33742 c 12.12578,-6.17152 14.88639,-7.81553 14.2285,-8.47342 -1.25931,-1.25929 -22.81117,8.92349 -25.87919,12.22736 -1.25004,1.34612 -1.88155,2.4475 -1.40335,2.4475 0.47819,0 6.35251,-2.79065 13.05404,-6.20144 z"
     id="path4166"
     inkscape:connector-curvature="0" />
</svg>
